<mxfile host="app.diagrams.net" modified="2023-08-28T03:14:38.865Z" agent="Mozilla/5.0 (Macintosh; Intel Mac OS X 10_15_7) AppleWebKit/537.36 (KHTML, like Gecko) Chrome/116.0.0.0 Safari/537.36" etag="17XmTrUEIGnkR-3agCVv" version="21.6.5" type="github">
  <diagram name="Page-1" id="13e1069c-82ec-6db2-03f1-153e76fe0fe0">
    <mxGraphModel dx="2322" dy="731" grid="1" gridSize="10" guides="1" tooltips="1" connect="1" arrows="1" fold="1" page="1" pageScale="1" pageWidth="1100" pageHeight="850" background="none" math="0" shadow="0">
      <root>
        <mxCell id="0" />
        <mxCell id="1" parent="0" />
        <mxCell id="-RjXNWNZFDge65mw0WvV-12" value="Sentry Client" style="shape=umlLifeline;perimeter=lifelinePerimeter;whiteSpace=wrap;html=1;container=1;collapsible=0;recursiveResize=0;outlineConnect=0;rounded=1;shadow=0;comic=0;labelBackgroundColor=none;strokeWidth=1;fontFamily=Verdana;fontSize=12;align=center;" parent="1" vertex="1">
          <mxGeometry x="-860" y="160" width="100" height="585" as="geometry" />
        </mxCell>
        <mxCell id="-RjXNWNZFDge65mw0WvV-13" value="" style="html=1;points=[];perimeter=orthogonalPerimeter;rounded=0;shadow=0;comic=0;labelBackgroundColor=none;strokeWidth=1;fontFamily=Verdana;fontSize=12;align=center;" parent="-RjXNWNZFDge65mw0WvV-12" vertex="1">
          <mxGeometry x="45" y="98" width="10" height="150" as="geometry" />
        </mxCell>
        <mxCell id="VhnIH6Gxjaamr10zynHm-16" value="" style="html=1;points=[];perimeter=orthogonalPerimeter;outlineConnect=0;targetShapes=umlLifeline;portConstraint=eastwest;newEdgeStyle={&quot;edgeStyle&quot;:&quot;elbowEdgeStyle&quot;,&quot;elbow&quot;:&quot;vertical&quot;,&quot;curved&quot;:0,&quot;rounded&quot;:0};" vertex="1" parent="-RjXNWNZFDge65mw0WvV-12">
          <mxGeometry x="45" y="343" width="10" height="80" as="geometry" />
        </mxCell>
        <mxCell id="-RjXNWNZFDge65mw0WvV-17" value="接入Sentry的&lt;br&gt;业务系统" style="shape=note;whiteSpace=wrap;html=1;size=14;verticalAlign=top;align=center;spacingTop=-6;rounded=0;shadow=0;comic=0;labelBackgroundColor=none;strokeWidth=1;fontFamily=Verdana;fontSize=12" parent="1" vertex="1">
          <mxGeometry x="-860" y="100" width="110" height="35" as="geometry" />
        </mxCell>
        <mxCell id="-RjXNWNZFDge65mw0WvV-18" value="Sentry&lt;br&gt;配置存储桶" style="shape=umlLifeline;perimeter=lifelinePerimeter;whiteSpace=wrap;html=1;container=1;collapsible=0;recursiveResize=0;outlineConnect=0;rounded=1;shadow=0;comic=0;labelBackgroundColor=none;strokeWidth=1;fontFamily=Verdana;fontSize=12;align=center;" parent="1" vertex="1">
          <mxGeometry x="-406" y="160" width="100" height="580" as="geometry" />
        </mxCell>
        <mxCell id="-RjXNWNZFDge65mw0WvV-19" value="" style="html=1;points=[];perimeter=orthogonalPerimeter;rounded=0;shadow=0;comic=0;labelBackgroundColor=none;strokeWidth=1;fontFamily=Verdana;fontSize=12;align=center;" parent="-RjXNWNZFDge65mw0WvV-18" vertex="1">
          <mxGeometry x="45" y="106" width="10" height="72" as="geometry" />
        </mxCell>
        <mxCell id="-RjXNWNZFDge65mw0WvV-20" value="Sentry&lt;br&gt;规则" style="shape=note;whiteSpace=wrap;html=1;size=14;verticalAlign=top;align=center;spacingTop=-6;rounded=0;shadow=0;comic=0;labelBackgroundColor=none;strokeWidth=1;fontFamily=Verdana;fontSize=12" parent="1" vertex="1">
          <mxGeometry x="-406" y="100" width="100" height="35" as="geometry" />
        </mxCell>
        <mxCell id="-RjXNWNZFDge65mw0WvV-21" value="Sentry SDK" style="shape=umlLifeline;perimeter=lifelinePerimeter;whiteSpace=wrap;html=1;container=1;collapsible=0;recursiveResize=0;outlineConnect=0;rounded=1;shadow=0;comic=0;labelBackgroundColor=none;strokeWidth=1;fontFamily=Verdana;fontSize=12;align=center;" parent="1" vertex="1">
          <mxGeometry x="-650" y="160" width="100" height="580" as="geometry" />
        </mxCell>
        <mxCell id="-RjXNWNZFDge65mw0WvV-22" value="" style="html=1;points=[];perimeter=orthogonalPerimeter;rounded=0;shadow=0;comic=0;labelBackgroundColor=none;strokeWidth=1;fontFamily=Verdana;fontSize=12;align=center;" parent="-RjXNWNZFDge65mw0WvV-21" vertex="1">
          <mxGeometry x="45" y="101" width="10" height="90" as="geometry" />
        </mxCell>
        <mxCell id="VhnIH6Gxjaamr10zynHm-11" value="" style="html=1;points=[];perimeter=orthogonalPerimeter;outlineConnect=0;targetShapes=umlLifeline;portConstraint=eastwest;newEdgeStyle={&quot;edgeStyle&quot;:&quot;elbowEdgeStyle&quot;,&quot;elbow&quot;:&quot;vertical&quot;,&quot;curved&quot;:0,&quot;rounded&quot;:0};" vertex="1" parent="-RjXNWNZFDge65mw0WvV-21">
          <mxGeometry x="45" y="218" width="10" height="40" as="geometry" />
        </mxCell>
        <mxCell id="VhnIH6Gxjaamr10zynHm-12" value="初始化" style="html=1;align=left;spacingLeft=2;endArrow=block;rounded=0;edgeStyle=orthogonalEdgeStyle;curved=0;rounded=0;" edge="1" parent="-RjXNWNZFDge65mw0WvV-21">
          <mxGeometry relative="1" as="geometry">
            <mxPoint x="55" y="171" as="sourcePoint" />
            <Array as="points">
              <mxPoint x="55" y="183" />
              <mxPoint x="85" y="183" />
              <mxPoint x="85" y="231" />
            </Array>
            <mxPoint x="55" y="231" as="targetPoint" />
          </mxGeometry>
        </mxCell>
        <mxCell id="VhnIH6Gxjaamr10zynHm-24" value="" style="html=1;points=[];perimeter=orthogonalPerimeter;outlineConnect=0;targetShapes=umlLifeline;portConstraint=eastwest;newEdgeStyle={&quot;edgeStyle&quot;:&quot;elbowEdgeStyle&quot;,&quot;elbow&quot;:&quot;vertical&quot;,&quot;curved&quot;:0,&quot;rounded&quot;:0};" vertex="1" parent="-RjXNWNZFDge65mw0WvV-21">
          <mxGeometry x="50" y="354" width="10" height="105" as="geometry" />
        </mxCell>
        <mxCell id="VhnIH6Gxjaamr10zynHm-25" value="（监听addGlobalEventProcessor）&lt;br style=&quot;border-color: var(--border-color);&quot;&gt;&amp;nbsp; &amp;nbsp;加入配置中的错误类别" style="html=1;align=left;spacingLeft=2;endArrow=block;rounded=0;edgeStyle=orthogonalEdgeStyle;curved=0;rounded=0;" edge="1" parent="-RjXNWNZFDge65mw0WvV-21">
          <mxGeometry relative="1" as="geometry">
            <mxPoint x="62" y="363" as="sourcePoint" />
            <Array as="points">
              <mxPoint x="92" y="393" />
            </Array>
            <mxPoint x="67" y="393" as="targetPoint" />
          </mxGeometry>
        </mxCell>
        <mxCell id="-RjXNWNZFDge65mw0WvV-23" value="Sentry&lt;br&gt;接入包" style="shape=note;whiteSpace=wrap;html=1;size=14;verticalAlign=top;align=center;spacingTop=-6;rounded=0;shadow=0;comic=0;labelBackgroundColor=none;strokeWidth=1;fontFamily=Verdana;fontSize=12" parent="1" vertex="1">
          <mxGeometry x="-660" y="100" width="110" height="35" as="geometry" />
        </mxCell>
        <mxCell id="-RjXNWNZFDge65mw0WvV-24" value="Sentry service" style="shape=umlLifeline;perimeter=lifelinePerimeter;whiteSpace=wrap;html=1;container=1;collapsible=0;recursiveResize=0;outlineConnect=0;rounded=1;shadow=0;comic=0;labelBackgroundColor=none;strokeWidth=1;fontFamily=Verdana;fontSize=12;align=center;" parent="1" vertex="1">
          <mxGeometry x="-180" y="160" width="100" height="580" as="geometry" />
        </mxCell>
        <mxCell id="VhnIH6Gxjaamr10zynHm-27" value="" style="html=1;points=[];perimeter=orthogonalPerimeter;outlineConnect=0;targetShapes=umlLifeline;portConstraint=eastwest;newEdgeStyle={&quot;edgeStyle&quot;:&quot;elbowEdgeStyle&quot;,&quot;elbow&quot;:&quot;vertical&quot;,&quot;curved&quot;:0,&quot;rounded&quot;:0};" vertex="1" parent="-RjXNWNZFDge65mw0WvV-24">
          <mxGeometry x="45" y="437" width="10" height="80" as="geometry" />
        </mxCell>
        <mxCell id="-RjXNWNZFDge65mw0WvV-32" value="返回__SENTRY__对象" style="html=1;verticalAlign=bottom;endArrow=open;dashed=1;endSize=8;edgeStyle=elbowEdgeStyle;elbow=vertical;curved=0;rounded=0;" parent="1" edge="1">
          <mxGeometry x="-0.015" relative="1" as="geometry">
            <mxPoint x="-610.5" y="398" as="sourcePoint" />
            <mxPoint x="-800" y="398" as="targetPoint" />
            <Array as="points">
              <mxPoint x="-750" y="398" />
              <mxPoint x="-660" y="398" />
            </Array>
            <mxPoint as="offset" />
          </mxGeometry>
        </mxCell>
        <mxCell id="-RjXNWNZFDge65mw0WvV-34" value="sentry系统" style="shape=umlLifeline;perimeter=lifelinePerimeter;whiteSpace=wrap;html=1;container=1;collapsible=0;recursiveResize=0;outlineConnect=0;rounded=1;shadow=0;comic=0;labelBackgroundColor=none;strokeWidth=1;fontFamily=Verdana;fontSize=12;align=center;" parent="1" vertex="1">
          <mxGeometry x="50" y="160" width="100" height="580" as="geometry" />
        </mxCell>
        <mxCell id="VhnIH6Gxjaamr10zynHm-28" value="" style="html=1;points=[];perimeter=orthogonalPerimeter;outlineConnect=0;targetShapes=umlLifeline;portConstraint=eastwest;newEdgeStyle={&quot;edgeStyle&quot;:&quot;elbowEdgeStyle&quot;,&quot;elbow&quot;:&quot;vertical&quot;,&quot;curved&quot;:0,&quot;rounded&quot;:0};" vertex="1" parent="-RjXNWNZFDge65mw0WvV-34">
          <mxGeometry x="45" y="470" width="10" height="50" as="geometry" />
        </mxCell>
        <mxCell id="-RjXNWNZFDge65mw0WvV-37" value="Sentry可视化界面&lt;br&gt;（issues、BI、统计分析面板）" style="shape=note;whiteSpace=wrap;html=1;size=14;verticalAlign=top;align=center;spacingTop=-6;rounded=0;shadow=0;comic=0;labelBackgroundColor=none;strokeWidth=1;fontFamily=Verdana;fontSize=12" parent="1" vertex="1">
          <mxGeometry x="40" y="90" width="120" height="45" as="geometry" />
        </mxCell>
        <mxCell id="-RjXNWNZFDge65mw0WvV-39" value="Sentry&lt;br&gt;服务端" style="shape=note;whiteSpace=wrap;html=1;size=14;verticalAlign=top;align=center;spacingTop=-6;rounded=0;shadow=0;comic=0;labelBackgroundColor=none;strokeWidth=1;fontFamily=Verdana;fontSize=12" parent="1" vertex="1">
          <mxGeometry x="-180" y="100" width="100" height="35" as="geometry" />
        </mxCell>
        <mxCell id="-RjXNWNZFDge65mw0WvV-42" value="（获取默认配置）&lt;br&gt;环境、集成、禁用url、忽略url" style="html=1;verticalAlign=bottom;endArrow=block;edgeStyle=elbowEdgeStyle;elbow=horizontal;curved=0;rounded=0;" parent="1" edge="1">
          <mxGeometry x="-0.0035" width="80" relative="1" as="geometry">
            <mxPoint x="-564" y="272" as="sourcePoint" />
            <mxPoint x="-394" y="272" as="targetPoint" />
            <Array as="points" />
            <mxPoint as="offset" />
          </mxGeometry>
        </mxCell>
        <mxCell id="-RjXNWNZFDge65mw0WvV-43" value="（返回配置信息）&lt;br&gt;类别、场景、基础配置" style="html=1;verticalAlign=bottom;endArrow=open;dashed=1;endSize=8;edgeStyle=elbowEdgeStyle;elbow=vertical;curved=0;rounded=0;" parent="1" edge="1">
          <mxGeometry relative="1" as="geometry">
            <mxPoint x="-403" y="324" as="sourcePoint" />
            <mxPoint x="-563" y="324" as="targetPoint" />
            <Array as="points">
              <mxPoint x="-513" y="324" />
              <mxPoint x="-423" y="324" />
            </Array>
            <mxPoint as="offset" />
          </mxGeometry>
        </mxCell>
        <mxCell id="-RjXNWNZFDge65mw0WvV-48" value="（通过Sentry SDK）&lt;br&gt;初始化Sentry" style="html=1;verticalAlign=bottom;endArrow=block;edgeStyle=elbowEdgeStyle;elbow=horizontal;curved=0;rounded=0;" parent="1" edge="1">
          <mxGeometry x="-0.0035" width="80" relative="1" as="geometry">
            <mxPoint x="-790" y="265" as="sourcePoint" />
            <mxPoint x="-620" y="265" as="targetPoint" />
            <Array as="points" />
            <mxPoint as="offset" />
          </mxGeometry>
        </mxCell>
        <mxCell id="-RjXNWNZFDge65mw0WvV-66" value="" style="line;strokeWidth=1;fillColor=#dae8fc;align=left;verticalAlign=middle;spacingTop=-1;spacingLeft=3;spacingRight=3;rotatable=0;labelPosition=right;points=[];portConstraint=eastwest;strokeColor=#6c8ebf;" parent="1" vertex="1">
          <mxGeometry x="-1100" y="446" width="1300" height="8" as="geometry" />
        </mxCell>
        <mxCell id="-RjXNWNZFDge65mw0WvV-73" value="" style="line;strokeWidth=1;fillColor=#dae8fc;align=left;verticalAlign=middle;spacingTop=-1;spacingLeft=3;spacingRight=3;rotatable=0;labelPosition=right;points=[];portConstraint=eastwest;strokeColor=#6c8ebf;" parent="1" vertex="1">
          <mxGeometry x="-1080" y="695" width="1300" height="8" as="geometry" />
        </mxCell>
        <mxCell id="VhnIH6Gxjaamr10zynHm-19" value="（格式化i错误 &amp;amp; 原生错误）&lt;br&gt;上报采集错误" style="html=1;verticalAlign=bottom;endArrow=block;edgeStyle=elbowEdgeStyle;elbow=vertical;curved=0;rounded=0;" edge="1" parent="1">
          <mxGeometry x="-0.0035" width="80" relative="1" as="geometry">
            <mxPoint x="-790" y="520" as="sourcePoint" />
            <mxPoint x="-620" y="520" as="targetPoint" />
            <Array as="points" />
            <mxPoint as="offset" />
          </mxGeometry>
        </mxCell>
        <mxCell id="VhnIH6Gxjaamr10zynHm-26" value="（格式化错误 &amp;amp; 原生错误）&lt;br&gt;上报处理后的错误" style="html=1;verticalAlign=bottom;endArrow=block;edgeStyle=elbowEdgeStyle;elbow=horizontal;curved=0;rounded=0;entryX=0.006;entryY=0.642;entryDx=0;entryDy=0;entryPerimeter=0;" edge="1" parent="1">
          <mxGeometry x="-0.0035" width="80" relative="1" as="geometry">
            <mxPoint x="-581" y="610" as="sourcePoint" />
            <mxPoint x="-139.94000000000005" y="611.3599999999999" as="targetPoint" />
            <Array as="points" />
            <mxPoint as="offset" />
          </mxGeometry>
        </mxCell>
        <mxCell id="VhnIH6Gxjaamr10zynHm-29" value="处理数据" style="html=1;verticalAlign=bottom;endArrow=block;edgeStyle=elbowEdgeStyle;elbow=horizontal;curved=0;rounded=0;" edge="1" parent="1">
          <mxGeometry x="-0.0035" width="80" relative="1" as="geometry">
            <mxPoint x="-103" y="640" as="sourcePoint" />
            <mxPoint x="67" y="640" as="targetPoint" />
            <Array as="points" />
            <mxPoint as="offset" />
          </mxGeometry>
        </mxCell>
      </root>
    </mxGraphModel>
  </diagram>
</mxfile>
